<svg xmlns="http://www.w3.org/2000/svg" width="100" height="100" viewBox="0 0 100 100">
    <g fill="none" fill-rule="evenodd">
        <path fill="#474F59" d="M82.52 50.12c0 16.489-13.263 29.863-29.615 29.863-16.352 0-29.615-13.374-29.615-29.864 0-16.489 13.263-29.863 29.615-29.863 16.299 0 29.615 13.374 29.615 29.863z"/>
        <path fill="#37474F" fill-rule="nonzero" d="M52.852 80.789c-16.778 0-30.414-13.75-30.414-30.67 0-16.919 13.636-30.669 30.414-30.669 16.778 0 30.413 13.75 30.413 30.67.054 16.919-13.635 30.669-30.413 30.669zm0-59.727c-15.873 0-28.816 12.998-28.816 29.057 0 16.06 12.943 29.058 28.816 29.058 15.872 0 28.816-13.052 28.816-29.058.053-16.06-12.89-29.057-28.816-29.057z"/>
        <path fill="#FFF" d="M72.133 50.12c0 10.742-8.628 19.443-19.281 19.443-10.653 0-19.282-8.701-19.282-19.444 0-10.688 8.629-19.443 19.282-19.443s19.281 8.701 19.281 19.443z"/>
        <path fill="#37474F" fill-rule="nonzero" d="M52.852 70.369c-11.08 0-20.08-9.078-20.08-20.25s9-20.249 20.08-20.249c11.079 0 20.08 9.077 20.08 20.25 0 11.171-9.001 20.249-20.08 20.249zm0-38.887c-10.174 0-18.483 8.325-18.483 18.637 0 10.26 8.31 18.638 18.483 18.638s18.482-8.379 18.482-18.638c0-10.258-8.256-18.637-18.482-18.637z"/>
        <path fill="#37474F" fill-rule="nonzero" d="M52.852 66.555c-9.002 0-16.352-7.412-16.352-16.49 0-9.076 7.35-16.435 16.352-16.435 9.001 0 16.299 7.359 16.299 16.436.053 9.13-7.298 16.49-16.3 16.49zm0-31.26c-8.096 0-14.754 6.66-14.754 14.824 0 8.165 6.604 14.879 14.754 14.879 8.096 0 14.7-6.66 14.7-14.879.054-8.164-6.55-14.824-14.7-14.824z"/>
        <g fill="#B0BEC5">
            <path d="M49.869 23.103l4.155-4.19M49.869 23.908c-.213 0-.426-.053-.586-.215a.783.783 0 0 1 0-1.128l4.155-4.189a.768.768 0 0 1 1.118 0c.32.322.32.806 0 1.128l-4.154 4.19c-.107.16-.32.214-.533.214z"/>
        </g>
        <g fill="#B0BEC5">
            <path d="M40.388 26.003l2.397-5.425M40.388 26.809c-.106 0-.213 0-.32-.054-.426-.161-.585-.645-.426-1.074l2.397-5.425c.16-.43.64-.59 1.066-.43.426.161.585.645.426 1.074l-2.397 5.425c-.16.323-.426.484-.746.484z"/>
        </g>
        <g fill="#B0BEC5">
            <path d="M32.612 32.18l.266-5.962M32.612 32.986s-.054 0 0 0c-.48 0-.8-.376-.8-.86l.267-5.908a.76.76 0 0 1 .852-.752c.426 0 .8.376.746.86l-.267 5.908c0 .43-.372.752-.798.752z"/>
        </g>
        <g fill="#B0BEC5">
            <path d="M27.551 40.774l-1.864-5.64M27.551 41.58a.802.802 0 0 1-.745-.538l-1.864-5.64c-.16-.43.106-.859.479-1.02.426-.161.852.107 1.012.483l1.864 5.64c.16.43-.106.86-.48 1.02-.106 0-.159.054-.266.054z"/>
        </g>
        <g fill="#B0BEC5">
            <path d="M25.9 50.603l-3.781-4.566M25.9 51.409a.979.979 0 0 1-.639-.269l-3.728-4.62c-.267-.321-.213-.859.106-1.127.32-.269.852-.215 1.119.107l3.781 4.566c.267.322.213.86-.106 1.128a.76.76 0 0 1-.533.215z"/>
        </g>
        <g fill="#B0BEC5">
            <path d="M27.871 60.378l-5.113-2.9M27.871 61.184a.981.981 0 0 1-.373-.107l-5.166-2.9c-.373-.216-.533-.7-.32-1.075.213-.376.692-.537 1.065-.322l5.167 2.9c.373.215.533.698.32 1.074-.107.269-.373.43-.693.43z"/>
        </g>
        <g fill="#B0BEC5">
            <path d="M33.25 68.757l-5.858-.805M33.25 69.563h-.106l-5.806-.806c-.426-.053-.745-.483-.692-.913a.828.828 0 0 1 .905-.698l5.806.806c.426.053.746.483.693.913-.054.376-.426.698-.8.698z"/>
        </g>
        <g fill="#B0BEC5">
            <path d="M41.24 74.612l-5.699 1.396M35.541 76.814c-.373 0-.692-.268-.799-.644a.801.801 0 0 1 .586-.967l5.752-1.343a.794.794 0 0 1 .96.59c.106.43-.16.86-.587.968l-5.752 1.342c-.053.054-.107.054-.16.054z"/>
        </g>
        <g fill="#B0BEC5">
            <path d="M50.828 77.19l-4.847 3.384M45.98 81.38a.757.757 0 0 1-.638-.323c-.267-.376-.16-.86.213-1.128l4.847-3.383c.373-.269.852-.162 1.118.214.267.376.16.86-.213 1.128l-4.847 3.384c-.213.054-.32.108-.48.108z"/>
        </g>
        <g fill="#B0BEC5">
            <path d="M60.628 76.116l-3.302 4.941M57.326 81.863a.602.602 0 0 1-.426-.161c-.373-.269-.48-.752-.213-1.128l3.302-4.888c.266-.376.746-.483 1.119-.215.373.269.48.752.213 1.128l-3.303 4.888c-.213.215-.426.376-.692.376z"/>
        </g>
        <g fill="#B0BEC5">
            <path d="M69.417 71.55l-1.332 5.747M68.085 78.103h-.16a.801.801 0 0 1-.585-.967l1.331-5.8a.794.794 0 0 1 .959-.591.801.801 0 0 1 .586.966l-1.332 5.801c-.106.376-.426.591-.799.591z"/>
        </g>
        <g fill="#B0BEC5">
            <path d="M75.968 64.084l.853 5.855M76.82 70.745a.803.803 0 0 1-.798-.699l-.8-5.854c-.053-.43.267-.86.693-.913a.828.828 0 0 1 .906.698l.799 5.855c.053.43-.267.859-.693.913h-.106z"/>
        </g>
        <g fill="#B0BEC5">
            <path d="M79.43 54.685l2.823 5.21M82.253 60.7c-.266 0-.532-.16-.692-.43l-2.876-5.155c-.213-.376-.053-.86.32-1.075.372-.214.852-.053 1.065.323l2.876 5.156c.213.376.053.86-.32 1.074a.765.765 0 0 1-.373.108z"/>
        </g>
        <g fill="#B0BEC5">
            <path d="M79.27 44.695l4.528 3.813M83.798 49.314c-.16 0-.373-.054-.533-.161l-4.527-3.814c-.32-.268-.373-.806-.106-1.128.266-.322.798-.376 1.118-.107l4.527 3.813c.32.269.373.806.107 1.128a.852.852 0 0 1-.586.269z"/>
        </g>
        <g fill="#B0BEC5">
            <path d="M75.542 35.456l5.593 1.934M81.135 38.196c-.107 0-.16 0-.266-.054l-5.54-1.88c-.426-.161-.639-.59-.48-1.02.16-.43.587-.645 1.013-.484l5.593 1.88c.426.161.639.59.479 1.02-.16.323-.48.538-.8.538z"/>
        </g>
        <g fill="#B0BEC5">
            <path d="M68.778 28.205l5.859-.268M68.778 29.01c-.426 0-.8-.321-.8-.751s.32-.806.746-.86l5.86-.268c.426-.054.798.322.852.752 0 .43-.32.806-.746.86l-5.912.268c.053 0 0 0 0 0z"/>
        </g>
        <g fill="#B0BEC5">
            <path d="M59.883 23.855l5.38-2.364M59.883 24.66c-.32 0-.586-.16-.746-.483-.16-.43 0-.86.426-1.074l5.38-2.417c.426-.162.852 0 1.065.43.16.429 0 .859-.426 1.073l-5.38 2.418c-.106.053-.213.053-.32.053z"/>
        </g>
        <g fill="#FFAB00">
            <path d="M52.902 34.65v30.616"/>
        </g>
        <g fill="#FFAB00">
            <path d="M63.664 61.023L42.093 39.216"/>
        </g>
    </g>
</svg>
