<?xml version="1.0" encoding="UTF-8"?>
<svg width="100px" height="100px" viewBox="0 0 100 100" version="1.1" xmlns="http://www.w3.org/2000/svg" xmlns:xlink="http://www.w3.org/1999/xlink">
    <!-- Generator: sketchtool 53.2 (72643) - https://sketchapp.com -->
    <title>32267A4F-7A4B-48C5-BBB9-6BF7929B95C3</title>
    <desc>Created with sketchtool.</desc>
    <g id="Symbols" stroke="none" stroke-width="1" fill="none" fill-rule="evenodd">
        <g id="ðŸž/Icon/high-performance">
            <g id="Group-2" transform="translate(16.000000, 18.000000)">
                <g id="Group-117-Copy-2" transform="translate(24.721519, 27.365854)">
                    <g id="Group" transform="translate(0.637975, 0.649313)">
                        <path d="M36.2050633,18.7651568 C36.2050633,28.7321172 28.2622785,36.8160689 18.4693671,36.8160689 C8.6764557,36.8160689 0.733670886,28.7321172 0.733670886,18.7651568 C0.733670886,8.79819635 8.6764557,0.714244722 18.4693671,0.714244722 C28.2303797,0.714244722 36.2050633,8.79819635 36.2050633,18.7651568 Z" id="Path" fill="#474F59"></path>
                        <path d="M18.4374684,37.3030539 C8.38936709,37.3030539 0.223291139,28.9918426 0.223291139,18.7651568 C0.223291139,8.538471 8.38936709,0.227259684 18.4374684,0.227259684 C28.4855696,0.227259684 36.6516456,8.538471 36.6516456,18.7651568 C36.6835443,28.9918426 28.4855696,37.3030539 18.4374684,37.3030539 Z M18.4374684,1.20122976 C8.93164557,1.20122976 1.18025316,9.05792171 1.18025316,18.7651568 C1.18025316,28.4723919 8.93164557,36.3290838 18.4374684,36.3290838 C27.9432911,36.3290838 35.6946835,28.4399262 35.6946835,18.7651568 C35.7265823,9.05792171 27.9751899,1.20122976 18.4374684,1.20122976 Z" id="Shape" fill="#37474F" fill-rule="nonzero"></path>
                    </g>
                    <g id="Group" transform="translate(7.017722, 7.142447)">
                        <path d="M23.6050633,12.272023 C23.6050633,18.7651568 18.4374684,24.0245952 12.0577215,24.0245952 C5.67797468,24.0245952 0.510379747,18.7651568 0.510379747,12.272023 C0.510379747,5.81135479 5.67797468,0.519450707 12.0577215,0.519450707 C18.4374684,0.519450707 23.6050633,5.77888912 23.6050633,12.272023 Z" id="Path" fill="#FFFFFF"></path>
                        <path d="M12.0577215,24.5115802 C5.42278481,24.5115802 0.0318987347,19.0248821 0.0318987347,12.272023 C0.0318987347,5.51916376 5.42278481,0.0324656692 12.0577215,0.0324656692 C18.6926582,0.0324656692 24.0835443,5.51916376 24.0835443,12.272023 C24.0835443,19.0248821 18.6926582,24.5115802 12.0577215,24.5115802 Z M12.0577215,1.00643575 C5.96506329,1.00643575 0.98886076,6.03861447 0.98886076,12.272023 C0.98886076,18.4729658 5.96506329,23.5376102 12.0577215,23.5376102 C18.1503797,23.5376102 23.1265823,18.4729658 23.1265823,12.272023 C23.1265823,6.07108014 18.1822785,1.00643575 12.0577215,1.00643575 Z" id="Shape" fill="#37474F" fill-rule="nonzero"></path>
                    </g>
                    <g id="Group" transform="translate(9.250633, 9.415044)" fill="#37474F" fill-rule="nonzero">
                        <path d="M9.82481013,19.9339209 C4.43392405,19.9339209 0.0318987347,15.4536585 0.0318987347,9.96696044 C0.0318987347,4.48026235 4.43392405,0.0324656692 9.82481013,0.0324656692 C15.2156962,0.0324656692 19.5858228,4.48026235 19.5858228,9.96696044 C19.6177215,15.4861242 15.2156962,19.9339209 9.82481013,19.9339209 Z M9.82481013,1.03890141 C4.97620253,1.03890141 0.98886076,5.06464439 0.98886076,9.99942611 C0.98886076,14.9342078 4.9443038,18.9924165 9.82481013,18.9924165 C14.6734177,18.9924165 18.6288608,14.9666735 18.6288608,9.99942611 C18.6607595,5.06464439 14.7053165,1.03890141 9.82481013,1.03890141 Z" id="Shape"></path>
                    </g>
                    <g id="Group" transform="translate(17.236130, 0.000000)" fill="#B0BEC5">
                        <path d="M0.0529843381,3.08423857 L2.5410856,0.551916376" id="Path"></path>
                    </g>
                    <g id="Group" transform="translate(11.494357, 0.973970)" fill="#B0BEC5">
                        <path d="M0.116781806,3.86341463 L1.55222484,0.584382046" id="Path"></path>
                    </g>
                    <g id="Group" transform="translate(6.379747, 4.875353)" fill="#B0BEC5">
                        <path d="M0.574177215,3.69558363 L0.733670886,0.0918943518" id="Path"></path>
                    </g>
                    <g id="Group" transform="translate(2.232911, 9.739701)" fill="#B0BEC5">
                        <path d="M1.69063291,4.02574298 L0.574177215,0.616847715" id="Path"></path>
                    </g>
                    <g id="Group" transform="translate(0.648788, 16.887651)" fill="#B0BEC5">
                        <path d="M2.28589573,2.81901056 L0.0210856039,0.0594286826" id="Path"></path>
                    </g>
                    <g id="Group" transform="translate(0.967775, 23.375282)" fill="#B0BEC5">
                        <path d="M3.14716155,2.24013117 L0.0848830723,0.486985038" id="Path"></path>
                    </g>
                    <g id="Group" transform="translate(3.189873, 29.543759)" fill="#B0BEC5">
                        <path d="M4.14683544,1.13629842 L0.637974684,0.649313384" id="Path"></path>
                    </g>
                    <g id="Group" transform="translate(8.623471, 34.094455)" fill="#B0BEC5">
                        <path d="M3.49804763,0.124360021 L0.0848830723,0.96846742" id="Path"></path>
                    </g>
                    <g id="Group" transform="translate(14.354430, 35.717739)" fill="#B0BEC5">
                        <path d="M3.50886076,0.0594286826 L0.606075949,2.10476584" id="Path"></path>
                    </g>
                    <g id="Group" transform="translate(21.701952, 35.068425)" fill="#B0BEC5">
                        <path d="M2.03070586,0.0594286826 L0.0529843381,3.04627025" id="Path"></path>
                    </g>
                    <g id="Group" transform="translate(28.081699, 31.816356)" fill="#B0BEC5">
                        <path d="M0.914250161,0.551916376 L0.116781806,4.02574298" id="Path"></path>
                    </g>
                    <g id="Group" transform="translate(32.866509, 27.271162)" fill="#B0BEC5">
                        <path d="M0.0816666667,0.584382046 L0.868333333,4.12313999" id="Path"></path>
                    </g>
                    <g id="Group" transform="translate(34.450633, 22.082158)" fill="#B0BEC5">
                        <path d="M0.542278481,0.0918943518 L2.23291139,3.24106426" id="Path"></path>
                    </g>
                    <g id="Group" transform="translate(34.780433, 15.583521)" fill="#B0BEC5">
                        <path d="M0.116781806,0.551916376 L2.82817421,2.85697889" id="Path"></path>
                    </g>
                    <g id="Group" transform="translate(32.217722, 10.064357)" fill="#B0BEC5">
                        <path d="M0.446582278,0.486985038 L3.79594937,1.65574913" id="Path"></path>
                    </g>
                    <g id="Group" transform="translate(28.070886, 5.849323)" fill="#B0BEC5">
                        <path d="M0.542278481,0.487394958 L4.05113924,0.239495798" id="Path"></path>
                    </g>
                    <g id="Group" transform="translate(18.022785, 9.415044)" fill="#FFAB00">
                        <g transform="translate(0.478481, 0.000000)" id="Path">
                            <path d="M0.604397069,0.649313384 L0.604397069,19.1547448"></path>
                        </g>
                    </g>
                    <g id="Group" transform="translate(12.121519, 12.336954)" fill="#FFAB00">
                        <g id="Path">
                            <path d="M13.4293671,13.6680467 L0.510379747,0.486985038"></path>
                        </g>
                    </g>
                </g>
                <g id="Group-10" fill="#4295F3">
                    <path d="M44.3475706,9.50474004 C49.5283615,13.9007742 46.8343502,18.0874735 44.8656497,19.2388158 C42.4824858,20.4948255 39.6848587,19.8668206 38.337853,16.7267962 C36.9908474,13.4821043 40.4101694,10.4467474 37.4053107,6.15538065 C33.5715254,0.712671643 26.1111864,2.80602126 26.1111864,2.80602126 C31.0847457,6.88805301 30.1522033,11.3887547 26.940113,13.4821043 C25.8003389,14.2147767 24.2461017,14.7381141 22.6918644,14.7381141 C18.1327683,14.6334466 16.9929943,10.9700848 15.5423729,6.57405057 C13.9881356,1.96868141 6.11333332,-1.69468042 0,0.817339124 C8.60011298,6.57405057 0.310847457,15.366119 3.21209039,24.3675223 C5.90610169,32.7409208 21.2412429,28.2402191 18.7544632,38.7069672 C18.5472316,39.6489745 17.7183051,41.0096518 16.2676836,41.9516591 C15.0242938,42.788999 13.3664407,43.2076689 11.2941243,42.8936664 C9.53265535,42.579664 6.73502824,40.5909819 6.63141242,38.1836298 C4.55909604,41.9516591 4.3518644,50.4297251 12.4338983,54.3024219 C17.9255367,56.9191089 24.5569491,61.0011406 30.7738983,62.7804878 C28.8051977,61.3151431 26.940113,59.5357959 25.4894915,57.2331113 C19.0653107,47.4990356 21.759322,34.310933 31.3955932,27.8215492 C41.0318643,21.3321654 54.0874575,24.0535199 60.5116383,33.7875956 C61.6514123,35.4622753 62.4803389,37.2416225 62.998418,39.1256371 C63.1020338,29.1822264 58.1284745,11.2840872 44.3475706,9.50474004 Z" id="Path"></path>
                </g>
            </g>
        </g>
    </g>
</svg>